<svg width="170" height="42" viewBox="0 0 170 42" fill="none" xmlns="http://www.w3.org/2000/svg">
<path fill-rule="evenodd" clip-rule="evenodd" d="M36.2425 20.7692C36.2418 21.1012 36.2 21.4318 36.118 21.7535L38.1678 23.8166C42.1219 27.8365 42.0939 34.2895 38.1051 38.2749C34.1162 42.2603 27.6577 42.2883 23.6345 38.3376L21.6018 36.3067C20.9344 36.4836 20.2323 36.4836 19.5649 36.3067L17.5451 38.3269C13.5318 42.3373 7.02457 42.3378 3.01071 38.3279C-1.00315 34.3181 -1.00363 27.8163 3.00964 23.8059L5.28054 21.5348C5.17894 21.0251 5.17894 20.5004 5.28054 19.9907L3.01178 17.7217C0.415654 15.1274 -0.598046 11.3463 0.352536 7.80279C1.30312 4.25924 4.07356 1.49156 7.62028 0.542315C11.167 -0.406933 14.9511 0.606461 17.5473 3.20076L19.3266 4.97862C20.1441 4.71219 21.0259 4.71745 21.8401 4.99363L23.6366 3.19862C27.6599 -0.752113 34.1184 -0.724137 38.1072 3.2613C42.0961 7.24674 42.1241 13.6997 38.17 17.7196L36.1137 19.7741C36.1991 20.0989 36.2424 20.4333 36.2425 20.7692ZM26.4135 5.98842L24.4818 7.91854C24.5467 8.2057 24.5798 8.49913 24.5805 8.79353C24.5808 9.21316 24.5141 9.63014 24.383 10.0288L31.2472 16.8807C31.5683 16.7978 31.8987 16.756 32.2303 16.7564C32.6258 16.7559 33.0193 16.8137 33.3979 16.9279L35.3791 14.9463C37.7845 12.461 37.7514 8.50761 35.3046 6.06287C32.8577 3.61814 28.901 3.58501 26.4135 5.98842ZM24.4521 31.4274L31.2283 24.6548C31.9434 24.8416 32.6966 24.8245 33.4026 24.6055L35.3859 26.5871C37.7913 29.0725 37.7582 33.0258 35.3113 35.4706C32.8645 37.9153 28.9078 37.9484 26.4203 35.545L24.4199 33.5441C24.5261 33.1789 24.5803 32.8006 24.5808 32.4204C24.5809 32.0852 24.5376 31.7515 24.4521 31.4274ZM21.7277 28.5837L28.3816 21.9355L28.3837 21.9398C28.1505 21.1766 28.1505 20.3612 28.3837 19.598L21.483 12.7031C20.893 12.845 20.2781 12.8487 19.6864 12.7138L12.9961 19.3942C13.3195 20.28 13.3195 21.2514 12.9961 22.1371L19.4353 28.5709C20.1844 28.3522 20.9811 28.3566 21.7277 28.5837ZM16.7583 10.0723L16.7551 10.0755C16.5154 9.3679 16.4808 8.60699 16.6553 7.88053L14.76 5.98686C12.2725 3.58345 8.31578 3.61658 5.86896 6.06132C3.42214 8.50605 3.38898 12.4594 5.79444 14.9448L7.85714 17.0036C8.54324 16.7504 9.2859 16.691 10.0036 16.832L16.7551 10.0755L16.7562 10.0787L16.7583 10.0723ZM10.0035 24.7069C9.2862 24.8478 8.54394 24.7899 7.85714 24.5396L5.79444 26.5877C3.38898 29.0731 3.42214 33.0264 5.86896 35.4711C8.31578 37.9159 12.2725 37.949 14.76 35.5456L16.7175 33.5876C16.6031 33.2093 16.5452 32.8162 16.5458 32.4209C16.5455 32.0704 16.5917 31.7214 16.6832 31.383L10.0035 24.7069Z" fill="#2665F1"/>
<path fill-rule="evenodd" clip-rule="evenodd" d="M71.1427 17.0356V15.0154H74.8796V33.5639H71.1363V31.6552C69.6123 32.8987 67.7345 33.6304 65.7703 33.7462C65.5792 33.7633 65.3904 33.7633 65.2036 33.7633C61.0558 33.7665 57.3932 31.0605 56.1809 27.0972C54.9686 23.1338 56.4916 18.8444 59.9326 16.5304C63.3736 14.2163 67.9242 14.4214 71.1427 17.0356ZM62.5795 29.6C64.9591 30.7897 67.8418 30.2342 69.6078 28.2455C70.6434 27.0851 71.1726 25.5597 71.0781 24.0079C70.8921 20.9089 68.3256 18.4892 65.2184 18.4834H64.86C62.2038 18.6418 59.9853 20.5631 59.451 23.1675C58.9168 25.772 60.1999 28.4103 62.5795 29.6Z" fill="white"/>
<path d="M93.0928 11.9466V15.0734H84.636V12.1396C84.636 9.59186 86.2952 8.97422 87.5701 8.97422C88.1074 8.94871 88.6446 9.02736 89.152 9.20583V5.96537C88.9975 5.84956 88.2269 5.57935 86.9906 5.57935C83.6315 5.57935 80.8884 7.81829 80.8884 11.9466V15.0734H77.4541V18.3525H80.8884V33.6305H84.636V18.3503H93.0928V33.6283H96.8383V18.3503H101.318V15.0734H96.8383V12.1396C96.8383 9.59186 98.4975 8.97422 99.7725 8.97422C100.31 8.9493 100.848 9.02793 101.357 9.20583V5.96537C101.202 5.84956 100.429 5.57935 99.1929 5.57935C95.8338 5.57935 93.0928 7.81829 93.0928 11.9466Z" fill="white"/>
<rect x="104.574" y="15.0713" width="3.59095" height="18.5571" fill="white"/>
<path d="M106.351 5.42227C104.916 5.43175 103.758 6.59861 103.761 8.03291C103.764 9.46722 104.926 10.6296 106.361 10.6335C107.797 10.6375 108.966 9.48151 108.976 8.04724C108.985 7.34897 108.711 6.6769 108.217 6.18291C107.723 5.68892 107.05 5.41472 106.351 5.42227Z" fill="white"/>
<path d="M132.672 5.4223C131.237 5.43296 130.08 6.60032 130.084 8.03435C130.087 9.46837 131.25 10.63 132.685 10.6335C134.121 10.6371 135.289 9.48125 135.3 8.04726C135.308 7.34862 135.034 6.67621 134.539 6.18216C134.045 5.68811 133.372 5.41416 132.672 5.4223Z" fill="white"/>
<path d="M121.038 14.5307C118.874 14.5307 116.674 15.4186 115.322 17.7326V15.0733H111.77V33.6303H115.393V22.9074C115.393 20.0916 116.861 17.8141 119.718 17.8141C122.963 17.8141 124.043 19.8986 124.043 22.4828V33.6346H127.672V21.8609C127.679 17.7326 125.481 14.5307 121.038 14.5307Z" fill="white"/>
<path d="M166.1 15.0713L160.541 27.8809L154.748 15.0713H150.577L158.57 31.5846L153.936 41.3853H157.916L170 15.0713H166.1Z" fill="white"/>
<path d="M144.888 9.20557H141.578V12.208C141.578 13.8271 140.72 15.0624 138.722 15.0624H137.715V18.3415H141.267V28.5282C141.267 31.8845 143.276 33.8125 146.442 33.8125C147.28 33.8287 148.114 33.7114 148.915 33.4651V30.3876C148.444 30.4856 147.966 30.5373 147.485 30.542C145.592 30.542 144.897 29.6842 144.897 27.9964V18.3458H148.915V15.0731H144.888V9.20557Z" fill="white"/>
<rect x="130.897" y="15.0713" width="3.59095" height="18.5571" fill="white"/>
</svg>
